<svg xmlns="http://www.w3.org/2000/svg" viewBox="0 0 200 200" width="200" height="200">
  <rect width="200" height="200" fill="#3E2723"/>
  <ellipse cx="60" cy="60" rx="25" ry="35" fill="#5D4037" transform="rotate(-30 60 60)"/>
  <ellipse cx="60" cy="60" rx="8" ry="30" fill="#3E2723" transform="rotate(-30 60 60)"/>
  <ellipse cx="100" cy="50" rx="25" ry="35" fill="#6D4C41" transform="rotate(20 100 50)"/>
  <ellipse cx="100" cy="50" rx="8" ry="30" fill="#3E2723" transform="rotate(20 100 50)"/>
  <ellipse cx="140" cy="70" rx="25" ry="35" fill="#5D4037" transform="rotate(45 140 70)"/>
  <ellipse cx="140" cy="70" rx="8" ry="30" fill="#3E2723" transform="rotate(45 140 70)"/>
  <ellipse cx="80" cy="110" rx="25" ry="35" fill="#6D4C41" transform="rotate(-15 80 110)"/>
  <ellipse cx="80" cy="110" rx="8" ry="30" fill="#3E2723" transform="rotate(-15 80 110)"/>
  <ellipse cx="130" cy="130" rx="25" ry="35" fill="#5D4037" transform="rotate(30 130 130)"/>
  <ellipse cx="130" cy="130" rx="8" ry="30" fill="#3E2723" transform="rotate(30 130 130)"/>
  <ellipse cx="160" cy="160" rx="25" ry="35" fill="#6D4C41" transform="rotate(60 160 160)"/>
  <ellipse cx="160" cy="160" rx="8" ry="30" fill="#3E2723" transform="rotate(60 160 160)"/>
  <text x="100" y="185" text-anchor="middle" fill="#D7CCC8" font-size="14" font-weight="bold">500g</text>
</svg>